# 3ds Max Wavefront OBJ Exporter v0.97b - (c)2007 guruware
# File Created: 13.09.2015 02:15:22

mtllib 3d-model.mtl

#
# object Layer0_001
#

v  -1470.0249 0.0000 191.2937
v  -1470.0249 2219.6311 191.2937
v  -1470.0249 2219.6311 -69.0563
v  -1470.0249 0.0000 -69.0563
v  -1005.5083 2024.3842 191.2937
v  -1005.5083 2024.3842 19.8438
v  -970.0550 2051.2227 19.8438
v  -970.0550 2051.2227 191.2937
v  -514.9708 2024.3842 19.8438
v  -514.9708 0.0000 191.2937
v  -514.9708 2024.3842 191.2937
v  -550.4241 2051.2227 191.2937
v  -550.4241 2051.2227 19.8438
v  -588.7863 2073.7080 191.2937
v  -588.7863 2073.7080 19.8438
v  -629.5253 2091.5283 191.2937
v  -629.5253 2091.5283 19.8438
v  -672.0768 2104.4365 191.2937
v  -672.0768 2104.4365 19.8438
v  -715.8505 2112.2539 191.2937
v  -715.8505 2112.2539 19.8438
v  -760.2396 2114.8716 191.2937
v  -760.2396 2114.8716 19.8438
v  -804.6286 2112.2539 191.2937
v  -804.6286 2112.2539 19.8438
v  -848.4023 2104.4365 191.2937
v  -848.4023 2104.4365 19.8438
v  -890.9537 2091.5283 191.2937
v  -890.9537 2091.5283 19.8438
v  -931.6929 2073.7080 191.2937
v  -931.6929 2073.7080 19.8438
v  -1005.5083 0.0000 191.2937
v  250.2891 2053.7166 191.2937
v  219.7791 2089.9832 191.2937
v  219.7791 2089.9832 19.8438
v  250.2891 2053.7166 19.8438
v  183.9293 2120.9817 191.2937
v  183.9293 2120.9817 19.8438
v  143.6378 2145.9360 191.2937
v  143.6378 2145.9360 19.8438
v  99.9137 2164.2209 191.2937
v  99.9137 2164.2209 19.8438
v  53.8525 2175.3784 191.2937
v  53.8525 2175.3784 19.8438
v  6.6078 2179.1289 191.2937
v  6.6078 2179.1289 19.8438
v  -40.6368 2175.3784 191.2937
v  -40.6368 2175.3784 19.8438
v  -86.6981 2164.2209 191.2937
v  -86.6981 2164.2209 19.8438
v  -130.4222 2145.9360 191.2937
v  -130.4222 2145.9360 19.8438
v  -170.7136 2120.9817 191.2937
v  -170.7136 2120.9817 19.8438
v  -206.5635 2089.9832 191.2937
v  -206.5635 2089.9832 19.8438
v  -237.0735 2053.7166 191.2937
v  -237.0735 2053.7166 19.8438
v  571.2924 2081.3687 191.2937
v  542.6697 2041.4100 191.2937
v  542.6697 2041.4100 19.8438
v  571.2924 2081.3687 19.8438
v  1033.2070 2041.4100 191.2937
v  1004.5845 2081.3687 191.2937
v  1004.5845 2081.3687 19.8438
v  1033.2070 2041.4100 19.8438
v  969.5249 2115.8186 191.2937
v  969.5249 2115.8186 19.8438
v  929.0703 2143.7358 191.2937
v  929.0703 2143.7358 19.8438
v  884.4224 2164.2910 191.2937
v  884.4224 2164.2910 19.8438
v  836.9080 2176.8738 191.2937
v  836.9080 2176.8738 19.8438
v  787.9385 2181.1101 191.2937
v  787.9385 2181.1101 19.8438
v  738.9690 2176.8738 191.2937
v  738.9690 2176.8738 19.8438
v  691.4543 2164.2910 191.2937
v  691.4543 2164.2910 19.8438
v  646.8064 2143.7358 191.2937
v  646.8064 2143.7358 19.8438
v  606.3518 2115.8186 191.2937
v  606.3518 2115.8186 19.8438
v  -237.0735 0.0000 191.2937
v  250.2891 0.0000 191.2937
v  542.6697 0.0000 191.2937
v  1033.2070 0.0000 191.2937
v  -1325.3643 0.0000 191.2937
v  -1325.3643 2219.6311 191.2937
v  1322.2258 0.0000 191.2937
v  1322.2258 2219.6311 191.2937
v  431.0347 2219.6311 191.2937
v  431.0347 0.0000 191.2937
v  1368.2808 0.0000 191.2937
v  1476.3750 0.0000 191.2937
v  1476.3750 2219.6311 191.2937
v  1368.2808 2219.6311 191.2937
v  -433.1460 0.0000 191.2937
v  -433.1460 2219.6311 191.2937
v  -1253.2328 2219.6311 191.2937
v  -1253.2328 0.0000 191.2937
v  350.0409 0.0000 191.2937
v  350.0409 2219.6311 191.2937
v  -352.5723 2219.6311 191.2937
v  -352.5723 0.0000 191.2937
v  -352.5723 2219.6311 234.1563
v  -352.5723 0.0000 234.1563
v  -433.1460 0.0000 234.1563
v  -433.1460 2219.6311 234.1563
v  431.0347 2219.6311 234.1563
v  431.0347 0.0000 234.1563
v  350.0409 0.0000 234.1563
v  350.0409 2219.6311 234.1563
v  1322.2258 0.0000 234.1563
v  1322.2258 2219.6311 234.1563
v  1368.2808 2219.6311 234.1563
v  1368.2808 0.0000 234.1563
v  -1325.3643 0.0000 234.1563
v  -1325.3643 2219.6311 234.1563
v  -1253.2328 2219.6311 234.1563
v  -1253.2328 0.0000 234.1563
v  -1508.1249 2340.1431 -346.8687
v  -1508.1249 2340.1431 346.8687
v  1508.1250 2340.1431 346.8687
v  1508.1250 2340.1431 -346.8687
v  -1508.1249 2219.6311 346.8687
v  1508.1250 2219.6311 346.8687
v  -1508.1249 2219.6311 191.2937
v  1508.1250 2219.6311 191.2937
v  1476.3750 0.0000 -69.0563
v  204.0188 0.0000 -69.0563
v  204.0188 2176.4624 -69.0563
v  1476.3750 2219.6311 -69.0563
v  213.5438 2219.6311 -69.0563
v  -1508.1249 2219.6311 -346.8687
v  -1470.0249 2219.6311 -346.8687
v  1508.1250 2219.6311 -346.8687
v  1508.1250 2219.6311 -69.0563
v  204.0188 0.0000 -193.7770
v  204.0188 2176.4624 -193.7770
v  -23.1508 2219.6311 -217.4875
v  213.5438 2219.6311 -217.4875
v  -23.1508 2219.6311 -69.0563
v  189.8333 0.0000 -207.9625
v  189.8333 2176.4624 -207.9625
v  -13.6257 0.0000 -196.3037
v  -13.6257 2176.4624 -196.3037
v  -1.9669 2176.4624 -207.9625
v  -1.9669 0.0000 -207.9625
v  -13.6257 0.0000 -69.0563
v  -13.6257 2176.4624 -69.0563
# 152 vertices

vn -1.0000 0.0000 -0.0000
vn 0.6036 -0.7973 -0.0000
vn 0.5556 -0.8315 -0.0000
vn -0.5556 -0.8315 -0.0000
vn -0.6036 -0.7973 -0.0000
vn -0.4540 -0.8910 -0.0000
vn -0.3461 -0.9382 -0.0000
vn -0.2335 -0.9724 -0.0000
vn -0.1175 -0.9931 -0.0000
vn 0.0000 -1.0000 -0.0000
vn 0.1175 -0.9931 -0.0000
vn 0.2335 -0.9724 -0.0000
vn 0.3461 -0.9382 -0.0000
vn 0.4540 -0.8910 -0.0000
vn 0.0373 0.0749 0.9965
vn -0.0006 0.0796 0.9968
vn 0.0473 0.0728 0.9962
vn 0.0278 0.0767 0.9967
vn 0.0186 0.0783 0.9968
vn 0.0095 0.0796 0.9968
vn 0.0003 0.0808 0.9967
vn -0.0091 0.0818 0.9966
vn -0.0189 0.0826 0.9964
vn -0.0294 0.0833 0.9961
vn -0.0408 0.0838 0.9956
vn -0.0536 0.0841 0.9950
vn -0.0638 0.0842 0.9944
vn 1.0000 0.0000 -0.0000
vn 0.0540 0.0713 0.9960
vn -0.0000 0.0844 0.9964
vn -0.7652 -0.6438 -0.0000
vn -0.7119 -0.7023 -0.0000
vn -0.5922 -0.8058 -0.0000
vn -0.4576 -0.8892 -0.0000
vn -0.3116 -0.9502 -0.0000
vn -0.1578 -0.9875 -0.0000
vn 0.1578 -0.9875 -0.0000
vn 0.3116 -0.9502 -0.0000
vn 0.4576 -0.8892 -0.0000
vn 0.5922 -0.8058 -0.0000
vn 0.7119 -0.7023 -0.0000
vn 0.7652 -0.6438 -0.0000
vn 0.7597 -0.6502 -0.0000
vn 0.8130 -0.5823 -0.0000
vn -0.8130 -0.5823 -0.0000
vn -0.7597 -0.6502 -0.0000
vn -0.6368 -0.7710 -0.0000
vn -0.4949 -0.8689 -0.0000
vn -0.3384 -0.9410 -0.0000
vn -0.1717 -0.9851 -0.0000
vn 0.1717 -0.9851 -0.0000
vn 0.3384 -0.9410 -0.0000
vn 0.4949 -0.8689 -0.0000
vn 0.6368 -0.7710 -0.0000
vn 0.0776 0.0826 0.9936
vn 0.0001 0.0822 0.9966
vn 0.0984 0.0828 0.9917
vn 0.0565 0.0822 0.9950
vn 0.0395 0.0815 0.9959
vn 0.0248 0.0807 0.9964
vn 0.0118 0.0796 0.9968
vn -0.0004 0.0784 0.9969
vn -0.0122 0.0769 0.9970
vn -0.0240 0.0752 0.9969
vn -0.0364 0.0732 0.9967
vn -0.0497 0.0707 0.9963
vn -0.0648 0.0675 0.9956
vn -0.0697 0.0666 0.9953
vn 0.0886 0.0830 0.9926
vn 0.1160 0.0831 0.9898
vn 0.0632 0.0825 0.9946
vn 0.0435 0.0817 0.9957
vn 0.0272 0.0808 0.9964
vn 0.0128 0.0797 0.9967
vn -0.0132 0.0767 0.9970
vn -0.0261 0.0748 0.9969
vn -0.0397 0.0726 0.9966
vn -0.0547 0.0697 0.9961
vn -0.0722 0.0660 0.9952
vn -0.0792 0.0645 0.9948
vn 0.0000 0.0000 1.0000
vn 0.0000 1.0000 -0.0000
vn 0.0000 0.0000 -1.0000
vn 0.7071 0.0000 -0.7071
vn -0.7071 0.0000 -0.7071
vn 0.9765 -0.2155 -0.0000
vn -0.6317 -0.4494 -0.6317
vn -0.9765 -0.2155 -0.0000
vn 0.6210 -0.4781 -0.6210
vn 0.0000 -0.2155 -0.9765
vn -0.0000 0.2155 0.9765
# 91 vertex normals

vt 0.0000 0.0000 0.0000
vt 0.0000 0.7282 0.0000
vt -0.0854 0.7282 0.0000
vt -0.0854 0.0000 0.0000
vt 0.1752 -0.0562 0.0000
vt 0.1752 0.0000 0.0000
vt 0.1606 0.0000 0.0000
vt 0.1606 -0.0562 0.0000
vt -0.0562 0.6642 0.0000
vt 0.0000 0.6642 0.0000
vt 0.0146 -0.0562 0.0000
vt 0.0146 0.0000 0.0000
vt -0.0000 -0.0562 0.0000
vt 0.0292 -0.0562 0.0000
vt 0.0292 -0.0000 0.0000
vt 0.0438 -0.0562 0.0000
vt 0.0438 0.0000 0.0000
vt 0.0584 -0.0562 0.0000
vt 0.0584 -0.0000 0.0000
vt 0.0730 -0.0562 0.0000
vt 0.0730 -0.0000 0.0000
vt 0.0876 -0.0562 0.0000
vt 0.0876 -0.0000 0.0000
vt 0.1022 -0.0562 0.0000
vt 0.1022 -0.0000 0.0000
vt 0.1168 -0.0562 0.0000
vt 0.1168 0.0000 0.0000
vt 0.1314 -0.0562 0.0000
vt 0.1314 0.0000 0.0000
vt 0.1460 -0.0562 0.0000
vt 0.1460 0.0000 0.0000
vt 0.2913 0.6817 0.0000
vt 0.1523 -0.0005 0.0000
vt 0.3039 0.6743 0.0000
vt 0.2775 0.6878 0.0000
vt 0.2630 0.6922 0.0000
vt 0.2482 0.6950 0.0000
vt 0.2331 0.6960 0.0000
vt 0.2180 0.6954 0.0000
vt 0.2031 0.6930 0.0000
vt 0.1885 0.6889 0.0000
vt 0.1744 0.6832 0.0000
vt 0.1611 0.6760 0.0000
vt 0.1522 0.0006 0.0000
vt 0.1485 0.6674 0.0000
vt 0.0562 0.6642 0.0000
vt 0.3159 0.6653 0.0000
vt 0.3133 0.6665 0.0000
vt 0.3133 0.0000 0.0000
vt 0.0311 -0.0562 0.0000
vt 0.0311 0.0000 0.0000
vt 0.0467 -0.0562 0.0000
vt 0.0467 0.0000 0.0000
vt 0.0623 -0.0562 0.0000
vt 0.0623 0.0000 0.0000
vt 0.0778 -0.0562 0.0000
vt 0.0778 0.0000 0.0000
vt 0.0934 -0.0562 0.0000
vt 0.0934 0.0000 0.0000
vt 0.1090 -0.0562 0.0000
vt 0.1090 0.0000 0.0000
vt 0.1245 -0.0562 0.0000
vt 0.1245 0.0000 0.0000
vt 0.1401 -0.0562 0.0000
vt 0.1401 0.0000 0.0000
vt 0.1557 -0.0562 0.0000
vt 0.1557 0.0000 0.0000
vt 0.1712 -0.0562 0.0000
vt 0.1712 0.0000 0.0000
vt 0.1868 -0.0562 0.0000
vt 0.1868 0.0000 0.0000
vt 0.1776 -0.0562 0.0000
vt 0.1938 -0.0562 0.0000
vt 0.1938 -0.0000 0.0000
vt 0.1776 -0.0000 0.0000
vt 0.0161 -0.0562 0.0000
vt 0.0161 0.0000 0.0000
vt 0.0323 -0.0562 0.0000
vt 0.0323 0.0000 0.0000
vt 0.0484 -0.0562 0.0000
vt 0.0484 0.0000 0.0000
vt 0.0646 -0.0562 0.0000
vt 0.0646 0.0000 0.0000
vt 0.0807 -0.0562 0.0000
vt 0.0807 0.0000 0.0000
vt 0.0969 -0.0562 0.0000
vt 0.0969 -0.0000 0.0000
vt 0.1130 -0.0562 0.0000
vt 0.1130 -0.0000 0.0000
vt 0.1292 -0.0562 0.0000
vt 0.1292 -0.0000 0.0000
vt 0.0562 0.6738 0.0000
vt 0.0000 0.6738 0.0000
vt 0.5572 0.6834 0.0000
vt 0.5616 -0.0046 0.0000
vt 0.5672 0.6715 0.0000
vt 0.5453 0.6949 0.0000
vt 0.5630 -0.0033 0.0000
vt 0.5570 0.6847 0.0000
vt 0.5316 0.7041 0.0000
vt 0.5167 0.7108 0.0000
vt 0.5641 -0.0016 0.0000
vt 0.5010 0.7151 0.0000
vt 0.4848 0.7169 0.0000
vt 0.5644 -0.0003 0.0000
vt 0.4686 0.7161 0.0000
vt 0.4527 0.7129 0.0000
vt 0.5643 0.0008 0.0000
vt 0.4375 0.7073 0.0000
vt 0.4234 0.6995 0.0000
vt 0.5638 0.0018 0.0000
vt 0.4222 0.6998 0.0000
vt 0.4104 0.6896 0.0000
vt 0.4089 0.6900 0.0000
vt 0.3990 0.6780 0.0000
vt 0.5627 0.0028 0.0000
vt 0.4045 0.6761 0.0000
vt 0.4045 0.0000 0.0000
vt -0.0562 0.6738 0.0000
vt 0.0562 0.6698 0.0000
vt 0.0000 0.6698 0.0000
vt 0.8129 0.6773 0.0000
vt 0.8157 -0.0079 0.0000
vt 0.8222 0.6641 0.0000
vt 0.8023 0.6910 0.0000
vt 0.8185 -0.0056 0.0000
vt 0.8138 0.6797 0.0000
vt 0.7890 0.7019 0.0000
vt 0.8199 -0.0039 0.0000
vt 0.8023 0.6927 0.0000
vt 0.7740 0.7099 0.0000
vt 0.8207 -0.0025 0.0000
vt 0.7887 0.7032 0.0000
vt 0.7579 0.7151 0.0000
vt 0.8211 -0.0014 0.0000
vt 0.7735 0.7110 0.0000
vt 0.7412 0.7174 0.0000
vt 0.7243 0.7168 0.0000
vt 0.8213 0.0004 0.0000
vt 0.7079 0.7134 0.0000
vt 0.7068 0.7141 0.0000
vt 0.6922 0.7073 0.0000
vt 0.8208 0.0021 0.0000
vt 0.6909 0.7080 0.0000
vt 0.6776 0.6988 0.0000
vt 0.6760 0.6994 0.0000
vt 0.6645 0.6881 0.0000
vt 0.8195 0.0037 0.0000
vt 0.6622 0.6887 0.0000
vt 0.6529 0.6756 0.0000
vt 0.8181 0.0045 0.0000
vt 0.6603 0.6721 0.0000
vt 0.6603 0.0000 0.0000
vt -0.0562 0.6698 0.0000
vt 0.0475 0.7282 0.0000
vt 0.9161 0.0000 0.0000
vt 0.9161 0.7282 0.0000
vt 0.8213 0.6698 0.0000
vt 0.8119 0.6829 0.0000
vt 0.8004 0.6942 0.0000
vt 0.7871 0.7033 0.0000
vt 0.7725 0.7101 0.0000
vt 0.7569 0.7142 0.0000
vt 0.7408 0.7156 0.0000
vt 0.6237 0.7282 0.0000
vt 0.7247 0.7142 0.0000
vt 0.7091 0.7101 0.0000
vt 0.6945 0.7033 0.0000
vt 0.6812 0.6942 0.0000
vt 0.6697 0.6829 0.0000
vt 0.6603 0.6698 0.0000
vt 0.6237 0.0000 0.0000
vt 0.9312 0.0000 0.0000
vt 0.9667 0.0000 0.0000
vt 0.9667 0.7282 0.0000
vt 0.9312 0.7282 0.0000
vt 0.3402 0.0000 0.0000
vt 0.3402 0.7282 0.0000
vt 0.3133 0.6642 0.0000
vt 0.3017 0.6730 0.0000
vt 0.2891 0.6804 0.0000
vt 0.2758 0.6862 0.0000
vt 0.2618 0.6904 0.0000
vt 0.2474 0.6930 0.0000
vt 0.2329 0.6939 0.0000
vt 0.0711 0.7282 0.0000
vt 0.2183 0.6930 0.0000
vt 0.2039 0.6904 0.0000
vt 0.1900 0.6862 0.0000
vt 0.1766 0.6804 0.0000
vt 0.1640 0.6730 0.0000
vt 0.1524 0.6642 0.0000
vt 0.0711 0.0000 0.0000
vt 0.5971 0.0000 0.0000
vt 0.5971 0.7282 0.0000
vt 0.5644 0.6738 0.0000
vt 0.5544 0.6857 0.0000
vt 0.5426 0.6959 0.0000
vt 0.5294 0.7040 0.0000
vt 0.5151 0.7100 0.0000
vt 0.5000 0.7137 0.0000
vt 0.4845 0.7149 0.0000
vt 0.3666 0.7282 0.0000
vt 0.4690 0.7137 0.0000
vt 0.4538 0.7100 0.0000
vt 0.4395 0.7040 0.0000
vt 0.4263 0.6959 0.0000
vt 0.4145 0.6857 0.0000
vt 0.4045 0.6738 0.0000
vt 0.3666 0.0000 0.0000
vt -0.3917 0.8141 0.0000
vt -0.3917 0.0859 0.0000
vt -0.3777 0.0859 0.0000
vt -0.3777 0.8141 0.0000
vt 0.0689 -0.0131 0.0000
vt 0.0689 0.7152 0.0000
vt 0.0548 0.7152 0.0000
vt 0.0548 -0.0131 0.0000
vt -0.0842 0.7247 0.0000
vt -0.0842 -0.0035 0.0000
vt -0.0702 -0.0035 0.0000
vt -0.0702 0.7247 0.0000
vt 0.0669 -0.0095 0.0000
vt 0.0669 0.7187 0.0000
vt 0.0529 0.7187 0.0000
vt 0.0529 -0.0095 0.0000
vt 0.0695 -0.0044 0.0000
vt 0.0695 0.7238 0.0000
vt 0.0554 0.7238 0.0000
vt 0.0554 -0.0044 0.0000
vt -0.0801 0.7282 0.0000
vt -0.0801 0.0000 0.0000
vt -0.0660 0.0000 0.0000
vt -0.0660 0.7282 0.0000
vt 0.0714 -0.0136 0.0000
vt 0.0714 0.7146 0.0000
vt 0.0574 0.7146 0.0000
vt 0.0574 -0.0136 0.0000
vt -0.0816 0.7200 0.0000
vt -0.0816 -0.0082 0.0000
vt -0.0675 -0.0082 0.0000
vt -0.0675 0.7200 0.0000
vt -0.0125 0.1766 0.0000
vt -0.0125 -0.0510 0.0000
vt 0.9771 -0.0510 0.0000
vt 0.9771 0.1766 0.0000
vt -0.0125 0.7282 0.0000
vt 0.9771 0.7282 0.0000
vt 0.9771 0.7678 0.0000
vt -0.0125 0.7678 0.0000
vt -0.0072 -0.2445 0.0000
vt -0.0072 -0.2304 0.0000
vt -0.2763 -0.2304 0.0000
vt -0.2763 -0.2445 0.0000
vt -0.9132 -0.2815 0.0000
vt 0.0164 -0.2445 0.0000
vt 0.0764 -0.2815 0.0000
vt 0.0639 -0.2304 0.0000
vt 0.0764 -0.2304 0.0000
vt 0.0164 -0.2304 0.0000
vt -0.3027 -0.2445 0.0000
vt -0.5332 -0.2445 0.0000
vt -0.5332 -0.2304 0.0000
vt -0.3027 -0.2304 0.0000
vt -0.5598 -0.2445 0.0000
vt -0.8522 -0.2445 0.0000
vt -0.8522 -0.2304 0.0000
vt -0.5598 -0.2304 0.0000
vt -0.8673 -0.2445 0.0000
vt -0.9028 -0.2304 0.0000
vt -0.8673 -0.2304 0.0000
vt -0.9132 -0.2304 0.0000
vt -0.5358 0.7498 0.0000
vt -0.4024 0.7536 0.0000
vt -0.4089 0.9817 0.0000
vt -0.5424 0.9824 0.0000
vt -0.4101 0.9862 0.0000
vt -0.3326 0.7248 0.0000
vt -0.3326 0.7643 0.0000
vt -0.5602 0.7643 0.0000
vt -0.3837 0.7248 0.0000
vt -0.5602 0.7248 0.0000
vt -0.3712 -0.0034 0.0000
vt -0.3712 0.1731 0.0000
vt -0.3837 0.1731 0.0000
vt -0.3837 -0.0034 0.0000
vt -0.3837 0.0820 0.0000
vt 0.0125 0.7282 0.0000
vt 0.0125 0.7678 0.0000
vt -0.9771 0.7282 0.0000
vt -0.9771 0.7678 0.0000
vt 0.0854 0.0000 0.0000
vt 0.0854 0.7282 0.0000
vt -0.0510 0.7678 0.0000
vt -0.0510 0.7282 0.0000
vt 0.1766 0.7678 0.0000
vt 0.1766 0.7282 0.0000
vt -0.9667 0.0000 0.0000
vt -0.9667 0.0854 0.0000
vt -0.9771 0.0854 0.0000
vt -0.9771 0.0000 0.0000
vt -0.2062 0.9874 0.0000
vt -0.1997 0.7593 0.0000
vt -0.1867 0.7597 0.0000
vt -0.1931 0.9878 0.0000
vt -0.4747 0.1341 0.0000
vt 0.0000 0.0854 0.0000
vt 0.0000 0.1766 0.0000
vt -0.9771 0.1766 0.0000
vt -0.5524 0.1341 0.0000
vt -0.5524 0.0854 0.0000
vt -0.4747 0.0854 0.0000
vt -0.3630 0.7224 0.0000
vt -0.3609 0.7224 0.0000
vt -0.3674 0.9505 0.0000
vt -0.3695 0.9505 0.0000
vt -0.3838 0.4852 0.0000
vt -0.3903 0.7133 0.0000
vt -0.3920 0.7132 0.0000
vt -0.3855 0.4851 0.0000
vt -0.4010 0.7536 0.0000
vt -0.3809 0.7542 0.0000
vt -0.3873 0.9823 0.0000
vt -0.4074 0.9817 0.0000
vt -0.1941 1.0202 0.0000
vt -0.2073 1.0245 0.0000
vt -0.2071 1.0199 0.0000
vt -0.2543 0.7578 0.0000
vt -0.2608 0.9859 0.0000
vt -0.2741 0.9855 0.0000
vt -0.2676 0.7574 0.0000
vt -0.4964 0.6915 0.0000
vt -0.4968 0.6967 0.0000
vt -0.4985 0.6963 0.0000
vt -0.2754 0.9518 0.0000
vt -0.2730 0.9473 0.0000
vt -0.2598 0.9523 0.0000
vt -0.2597 0.9476 0.0000
vt -0.3796 0.7542 0.0000
vt -0.2270 0.7586 0.0000
vt -0.2336 0.9912 0.0000
vt -0.3861 0.9823 0.0000
vt -0.3853 0.9869 0.0000
vt -0.1917 1.0249 0.0000
vt -0.3686 0.9556 0.0000
vt -0.0821 0.9993 0.0000
vt -0.0798 0.9947 0.0000
vt -0.0573 1.0000 0.0000
# 348 texture coords

g Layer0_001
usemtl wire_224198087
s off
f 1/1/1 2/2/1 3/3/1 4/4/1 
f 5/5/2 6/6/2 7/7/3 8/8/3 
f 9/9/1 10/1/1 11/10/1 
f 12/11/4 13/12/4 9/1/5 11/13/5 
f 14/14/6 15/15/6 13/12/4 12/11/4 
f 16/16/7 17/17/7 15/15/6 14/14/6 
f 18/18/8 19/19/8 17/17/7 16/16/7 
f 20/20/9 21/21/9 19/19/8 18/18/8 
f 22/22/10 23/23/10 21/21/9 20/20/9 
f 24/24/11 25/25/11 23/23/10 22/22/10 
f 26/26/12 27/27/12 25/25/11 24/24/11 
f 28/28/13 29/29/13 27/27/12 26/26/12 
f 30/30/14 31/31/14 29/29/13 28/28/13 
f 8/8/3 7/7/3 31/31/14 30/30/14 
f 15/32/15 32/33/16 13/34/17 
f 17/35/18 32/33/16 15/32/15 
f 19/36/19 32/33/16 17/35/18 
f 21/37/20 32/33/16 19/36/19 
f 23/38/21 32/33/16 21/37/20 
f 23/38/21 25/39/22 32/33/16 
f 25/39/22 27/40/23 32/33/16 
f 27/40/23 29/41/24 32/33/16 
f 29/41/24 31/42/25 32/33/16 
f 31/42/25 7/43/26 32/44/16 
f 7/43/26 6/45/27 32/44/16 
f 6/46/28 5/10/28 32/1/28 
f 13/34/17 32/33/16 9/47/29 
f 9/48/30 32/33/30 10/49/30 
f 33/13/31 34/11/32 35/12/32 36/1/31 
f 37/50/33 38/51/33 35/12/32 34/11/32 
f 39/52/34 40/53/34 38/51/33 37/50/33 
f 41/54/35 42/55/35 40/53/34 39/52/34 
f 43/56/36 44/57/36 42/55/35 41/54/35 
f 45/58/10 46/59/10 44/57/36 43/56/36 
f 47/60/37 48/61/37 46/59/10 45/58/10 
f 49/62/38 50/63/38 48/61/37 47/60/37 
f 51/64/39 52/65/39 50/63/38 49/62/38 
f 53/66/40 54/67/40 52/65/39 51/64/39 
f 55/68/41 56/69/41 54/67/40 53/66/40 
f 55/68/41 57/70/42 58/71/42 56/69/41 
f 59/72/43 60/73/44 61/74/44 62/75/43 
f 63/13/45 64/76/46 65/77/46 66/1/45 
f 67/78/47 68/79/47 65/77/46 64/76/46 
f 69/80/48 70/81/48 68/79/47 67/78/47 
f 71/82/49 72/83/49 70/81/48 69/80/48 
f 73/84/50 74/85/50 72/83/49 71/82/49 
f 75/86/10 76/87/10 74/85/50 73/84/50 
f 77/88/51 78/89/51 76/87/10 75/86/10 
f 79/90/52 80/91/52 78/89/51 77/88/51 
f 81/30/53 82/31/53 80/91/52 79/90/52 
f 83/8/54 84/7/54 82/31/53 81/30/53 
f 59/72/43 62/75/43 84/7/54 83/8/54 
f 58/92/28 57/93/28 85/1/28 
f 35/94/55 86/95/56 36/96/57 
f 38/97/58 86/98/56 35/99/55 
f 40/100/59 86/98/56 38/97/58 
f 42/101/60 86/102/56 40/100/59 
f 44/103/61 86/102/56 42/101/60 
f 46/104/62 86/105/56 44/103/61 
f 46/104/62 48/106/63 86/105/56 
f 48/106/63 50/107/64 86/108/56 
f 50/107/64 52/109/65 86/108/56 
f 52/109/65 54/110/66 86/111/56 
f 54/112/66 56/113/67 86/111/56 
f 56/114/67 58/115/68 86/116/56 
f 58/117/68 85/118/56 86/105/56 
f 36/119/1 86/1/1 33/93/1 
f 61/120/28 60/121/28 87/1/28 
f 65/122/69 88/123/56 66/124/70 
f 68/125/71 88/126/56 65/127/69 
f 70/128/72 88/129/56 68/130/71 
f 72/131/73 88/132/56 70/133/72 
f 74/134/74 88/135/56 72/136/73 
f 76/137/62 88/135/56 74/134/74 
f 76/137/62 78/138/75 88/139/56 
f 78/138/75 80/140/76 88/139/56 
f 80/141/76 82/142/77 88/143/56 
f 82/144/77 84/145/78 88/143/56 
f 84/146/78 62/147/79 88/148/56 
f 62/149/79 61/150/80 88/151/56 
f 61/152/80 87/153/30 88/139/56 
f 66/154/1 88/1/1 63/121/1 
f 1/1/81 89/53/81 90/155/81 2/2/81 
f 88/139/81 91/156/81 92/157/81 63/158/81 
f 64/159/81 63/158/81 92/157/81 67/160/81 
f 69/161/81 67/160/81 92/157/81 71/162/81 
f 73/163/81 71/162/81 92/157/81 75/164/81 
f 75/164/81 92/157/81 93/165/81 77/166/81 
f 79/167/81 77/166/81 93/165/81 81/168/81 
f 83/169/81 81/168/81 93/165/81 59/170/81 
f 60/171/81 59/170/81 93/165/81 94/172/81 
f 60/171/81 94/172/81 87/153/81 
f 95/173/81 96/174/81 97/175/81 98/176/81 
f 10/49/81 99/177/81 100/178/81 11/179/81 
f 12/180/81 11/179/81 100/178/81 14/181/81 
f 16/182/81 14/181/81 100/178/81 18/183/81 
f 20/184/81 18/183/81 100/178/81 22/185/81 
f 22/185/81 100/178/81 101/186/81 24/187/81 
f 26/188/81 24/187/81 101/186/81 28/189/81 
f 30/190/81 28/189/81 101/186/81 8/191/81 
f 5/192/81 8/191/81 101/186/81 102/193/81 
f 5/192/81 102/193/81 32/33/81 
f 86/105/81 103/194/81 104/195/81 33/196/81 
f 34/197/81 33/196/81 104/195/81 37/198/81 
f 39/199/81 37/198/81 104/195/81 41/200/81 
f 43/201/81 41/200/81 104/195/81 45/202/81 
f 45/202/81 104/195/81 105/203/81 47/204/81 
f 49/205/81 47/204/81 105/203/81 51/206/81 
f 53/207/81 51/206/81 105/203/81 55/208/81 
f 57/209/81 55/208/81 105/203/81 106/210/81 
f 57/209/81 106/210/81 85/118/81 
f 107/211/28 108/212/28 106/213/28 105/214/28 
f 109/215/1 110/216/1 100/217/1 99/218/1 
f 111/219/28 112/220/28 94/221/28 93/222/28 
f 113/223/1 114/224/1 104/225/1 103/226/1 
f 115/227/1 116/228/1 92/229/1 91/230/1 
f 117/231/28 118/232/28 95/233/28 98/234/28 
f 119/235/1 120/236/1 90/237/1 89/238/1 
f 121/239/28 122/240/28 102/241/28 101/242/28 
f 123/243/82 124/244/82 125/245/82 126/246/82 
f 115/156/81 118/173/81 117/176/81 116/157/81 
f 119/53/81 122/193/81 121/186/81 120/155/81 
f 109/177/81 108/210/81 107/203/81 110/178/81 
f 113/194/81 112/172/81 111/165/81 114/195/81 
f 127/247/81 128/248/81 125/249/81 124/250/81 
f 121/251/10 101/252/10 100/253/10 110/254/10 
f 121/251/10 110/254/10 128/255/10 120/256/10 
f 120/256/10 128/255/10 127/257/10 2/258/10 
f 2/258/10 127/257/10 129/259/10 
f 120/256/10 2/258/10 90/260/10 
f 128/255/10 110/254/10 107/261/10 114/262/10 
f 104/263/10 114/262/10 107/261/10 105/264/10 
f 128/255/10 114/262/10 111/265/10 116/266/10 
f 92/267/10 116/266/10 111/265/10 93/268/10 
f 128/255/10 116/266/10 117/269/10 97/270/10 
f 97/270/10 117/269/10 98/271/10 
f 128/255/10 97/270/10 130/272/10 
f 131/273/83 132/274/83 133/275/83 134/276/83 
f 134/276/83 133/275/83 135/277/83 
f 127/278/1 124/279/1 123/280/1 129/281/1 
f 129/281/1 123/280/1 136/282/1 
f 129/283/10 136/284/10 137/285/10 2/286/10 
f 2/286/10 137/285/10 3/287/10 
f 137/2/83 136/288/83 123/289/83 138/290/83 
f 138/290/83 123/289/83 126/291/83 
f 97/2/28 96/1/28 131/292/28 134/293/28 
f 125/294/28 128/295/28 130/2/28 126/296/28 
f 126/296/28 130/2/28 139/293/28 138/297/28 
f 97/298/10 134/299/10 139/300/10 130/301/10 
f 133/302/28 132/303/28 140/304/28 141/305/28 
f 142/306/10 3/307/10 137/308/10 138/309/10 
f 143/310/10 142/306/10 138/309/10 135/311/10 
f 134/299/10 135/311/10 138/309/10 139/300/10 
f 144/312/10 3/307/10 142/306/10 
f 140/313/84 145/314/84 146/315/84 141/316/84 
f 147/317/85 148/318/85 149/319/85 150/320/85 
f 145/321/83 150/322/83 149/323/83 146/324/83 
f 141/325/86 135/326/86 133/327/86 
f 151/328/1 152/329/1 148/330/1 147/331/1 
f 142/332/87 149/333/87 148/334/87 
f 142/335/88 148/336/88 144/337/88 
f 148/336/88 152/338/88 144/337/88 
f 151/339/83 4/340/83 3/341/83 152/342/83 
f 152/342/83 3/341/83 144/343/83 
f 143/344/86 135/326/86 141/325/86 
f 143/345/89 141/316/89 146/315/89 
f 143/277/90 146/324/90 149/323/90 
f 144/1/10 142/1/10 143/1/10 135/1/10 
f 144/1/10 135/1/10 104/1/10 105/1/10 
f 144/1/10 105/1/10 110/1/10 100/1/10 
f 144/1/10 100/1/10 101/1/10 90/1/10 
f 144/1/10 90/1/10 2/1/10 3/1/10 
f 120/1/10 90/1/10 101/1/10 121/1/10 
f 107/1/10 110/1/10 105/1/10 
f 104/1/10 135/1/10 134/1/10 93/1/10 
f 92/1/10 93/1/10 134/1/10 116/1/10 
f 98/1/10 116/1/10 134/1/10 97/1/10 
f 117/1/10 116/1/10 98/1/10 
f 114/1/10 104/1/10 93/1/10 111/1/10 
f 151/1/10 147/1/10 150/1/10 86/1/10 
f 151/1/10 86/1/10 85/1/10 106/1/10 
f 151/1/10 106/1/10 109/1/10 99/1/10 
f 151/1/10 99/1/10 10/1/10 32/1/10 
f 151/1/10 32/1/10 102/1/10 89/1/10 
f 151/1/10 89/1/10 1/1/10 4/1/10 
f 119/1/10 89/1/10 102/1/10 122/1/10 
f 108/1/10 109/1/10 106/1/10 
f 132/1/10 86/1/10 150/1/10 145/1/10 
f 132/1/10 145/1/10 140/1/10 
f 86/1/10 132/1/10 131/1/10 103/1/10 
f 94/1/10 103/1/10 131/1/10 87/1/10 
f 88/1/10 87/1/10 131/1/10 91/1/10 
f 115/1/10 91/1/10 131/1/10 95/1/10 
f 95/1/10 131/1/10 96/1/10 
f 118/1/10 115/1/10 95/1/10 
f 113/1/10 103/1/10 94/1/10 112/1/10 
f 142/346/91 149/347/91 143/348/91 
# 125 polygons - 72 triangles

