# Wavefront Obj file
# 
# verts: 17 uv-s: 48
mtllib Temple Tower.mtl

g Cube.171_Cube.198

v -0.014528 8.438200 0.232075
v -0.014156 8.438200 0.094287
v -0.013833 0.038495 0.094609
v -0.014113 0.038495 0.231842
v 0.123633 8.438200 0.094659
v 0.123309 0.038495 0.094979
v 0.123261 8.438200 0.232447
v 0.122939 0.038495 0.232121
v 0.159230 8.533352 0.268611
v -0.050692 8.533352 0.268044
v 0.127345 8.534270 0.236553
v -0.018634 8.534270 0.236159
v -0.050125 8.533352 0.058122
v 0.159797 8.533352 0.058689
v -0.018240 8.534270 0.090180
v 0.127739 8.534270 0.090574
v 0.054553 8.812784 0.163367
# 17 positions

vt 0.015438 0.009014
vt 0.015438 0.024187
vt 0.935167 0.024187
vt 0.935167 0.009014
vt 0.036176 0.040867
vt 0.021003 0.040867
vt 0.021003 0.960596
vt 0.036175 0.960596
vt 0.962124 0.043418
vt 0.962124 0.058591
vt 0.042396 0.058591
vt 0.042396 0.043418
vt 0.058613 0.984562
vt 0.043440 0.984562
vt 0.043440 0.064833
vt 0.058613 0.064833
vt 0.118724 0.102484
vt 0.133896 0.102443
vt 0.133855 0.087270
vt 0.118683 0.087311
vt 0.062627 0.995000
vt 0.039404 0.995000
vt 0.088056 0.064833
vt 0.088119 0.088056
vt 0.084553 0.084510
vt 0.084510 0.068398
vt 0.040190 0.030429
vt 0.016967 0.030429
vt 0.972563 0.039404
vt 0.972563 0.062627
vt 0.005000 0.005000
vt 0.005000 0.028223
vt 0.064895 0.088119
vt 0.064833 0.064896
vt 0.068398 0.068442
vt 0.068442 0.084554
vt 0.113116 0.106374
vt 0.113116 0.090262
vt 0.081287 0.098318
vt 0.065004 0.102229
vt 0.064833 0.118340
vt 0.096745 0.110623
vt 0.126490 0.080944
vt 0.126662 0.064833
vt 0.094750 0.072549
vt 0.132562 0.125820
vt 0.132562 0.109708
vt 0.100733 0.117764
# 48 texture coordinates

vn -0.691297 -0.222140 0.687577
vn -0.687576 -0.222141 -0.691298
vn -0.517639 -0.679111 -0.520440
vn -0.519309 -0.506972 0.687966
vn 0.691296 -0.222142 -0.687577
vn 0.520441 -0.679109 -0.517641
vn 0.687574 -0.222139 0.691300
vn 0.517637 -0.679111 0.520442
vn 0.692142 0.191508 0.695890
vn -0.695891 0.191510 0.692142
vn 0.541242 0.641045 0.544167
vn -0.544167 0.641046 0.541241
vn -0.692143 0.191508 -0.695890
vn 0.695891 0.191504 -0.692143
vn -0.541240 0.641049 -0.544165
vn 0.544166 0.641048 -0.541240
vn 0.000001 1.000000 0.000000
# 17 normals

usemtl None
f 1/1/1 2/2/2 3/3/3 4/4/4
f 2/5/2 5/6/5 6/7/6 3/8/3
f 5/9/5 7/10/7 8/11/8 6/12/6
f 7/13/7 1/14/1 4/15/4 8/16/8
f 4/17/4 3/18/3 6/19/6 8/20/8
f 1/14/1 7/13/7 9/21/9 10/22/10
f 10/23/10 9/24/9 11/25/11 12/26/12
f 5/6/5 2/5/2 13/27/13 14/28/14
f 7/10/7 5/9/5 14/29/14 9/30/9
f 2/2/2 1/1/1 10/31/10 13/32/13
f 14/33/14 13/34/13 15/35/15 16/36/16
f 9/24/9 14/33/14 16/36/16 11/25/11
f 13/34/13 10/23/10 12/26/12 15/35/15
f 16/37/16 15/38/15 17/39/17
f 11/40/11 16/41/16 17/42/17
f 15/43/15 12/44/12 17/45/17
f 12/46/12 11/47/11 17/48/17

# 17 faces
